<?xml version="1.0" standalone="no"?>
<!DOCTYPE svg PUBLIC "-//W3C//DTD SVG 20010904//EN"
 "http://www.w3.org/TR/2001/REC-SVG-20010904/DTD/svg10.dtd">
<svg version="1.0" xmlns="http://www.w3.org/2000/svg"
 width="700.000000pt" height="700.000000pt" viewBox="0 0 700.000000 700.000000"
 preserveAspectRatio="xMidYMid meet">
<metadata>
Created by potrace 1.14, written by Peter Selinger 2001-2017
</metadata>
<g transform="translate(0.000000,700.000000) scale(0.100000,-0.100000)"
fill="#000000" stroke="none">
<path d="M5248 6305 c-1 -2 -32 -5 -68 -6 -36 -1 -81 -6 -100 -10 -19 -4 -46
-10 -60 -13 -58 -11 -170 -51 -235 -84 -278 -139 -492 -408 -556 -697 -6 -27
-13 -59 -15 -70 -13 -55 -12 -226 1 -293 21 -110 90 -291 157 -412 14 -25 40
-72 58 -105 39 -70 132 -217 207 -327 29 -43 53 -80 53 -83 0 -3 -123 -5 -272
-5 -345 0 -386 -4 -540 -51 -302 -92 -567 -354 -673 -664 -90 -266 -65 -580
68 -825 174 -324 501 -536 857 -556 52 -3 345 -6 650 -7 l555 -2 55 -26 c101
-47 164 -119 194 -219 44 -149 -12 -307 -138 -391 -98 -64 -15 -61 -1429 -61
l-1287 -1 -85 -124 c-100 -145 -218 -305 -339 -456 -47 -60 -86 -111 -86 -115
0 -9 3036 -7 3144 2 43 3 81 8 85 11 4 2 20 6 35 9 121 22 288 101 406 192
325 250 474 654 389 1054 -23 106 -66 213 -137 336 -85 148 -279 319 -448 395
-210 94 -247 98 -950 99 -636 0 -637 0 -727 53 -55 33 -103 87 -136 157 -21
46 -26 69 -26 140 1 71 5 94 27 140 38 81 89 134 166 172 l67 33 568 3 568 3
34 38 c257 284 637 804 798 1093 155 277 219 465 218 641 -2 436 -300 839
-721 976 -36 12 -78 24 -94 27 -16 3 -32 7 -36 9 -4 3 -45 7 -91 11 -46 3 -89
7 -96 9 -6 2 -13 2 -15 0z m157 -740 c69 -33 127 -92 162 -163 25 -51 28 -68
28 -152 -1 -78 -5 -103 -24 -142 -36 -75 -95 -134 -168 -170 -60 -29 -76 -32
-152 -32 -77 0 -93 3 -151 33 -76 38 -129 92 -166 170 -23 47 -27 70 -28 141
0 71 4 94 26 142 85 183 295 260 473 173z"/>
<path d="M1639 3496 c-2 -2 -26 -6 -54 -10 -136 -16 -342 -102 -460 -191 -216
-163 -375 -420 -410 -660 -4 -27 -9 -59 -11 -70 -6 -29 -5 -176 1 -205 3 -14
8 -41 11 -60 10 -54 60 -191 106 -288 143 -307 448 -750 812 -1182 126 -149
110 -138 142 -100 15 18 33 37 38 44 24 25 166 196 232 281 424 538 678 975
739 1270 39 191 -14 455 -132 656 -186 316 -507 504 -879 515 -72 2 -132 2
-135 0z m251 -728 c70 -32 146 -107 178 -178 36 -80 37 -203 1 -280 -66 -141
-182 -212 -337 -206 -96 3 -172 38 -238 108 -70 75 -88 125 -88 238 1 115 19
164 91 238 77 80 156 112 268 107 49 -1 87 -10 125 -27z"/>
</g>
</svg>
