<?xml version="1.0" standalone="no"?>
<!DOCTYPE svg PUBLIC "-//W3C//DTD SVG 20010904//EN"
 "http://www.w3.org/TR/2001/REC-SVG-20010904/DTD/svg10.dtd">
<svg version="1.0" xmlns="http://www.w3.org/2000/svg"
 width="3588.000000pt" height="3588.000000pt" viewBox="0 0 3588.000000 3588.000000"
 preserveAspectRatio="xMidYMid meet">
<metadata>
Created by potrace 1.11, written by Peter Selinger 2001-2013
</metadata>
<g transform="translate(0.000000,3588.000000) scale(0.100000,-0.100000)"
fill="#000000" stroke="none">
<path d="M0 17940 l0 -17940 17940 0 17940 0 0 17940 0 17940 -17940 0 -17940
0 0 -17940z m23556 12700 c715 -56 1353 -307 1908 -752 133 -107 399 -375 510
-513 383 -478 622 -1030 716 -1650 32 -205 39 -570 15 -737 -117 -827 -743
-2014 -1869 -3543 -389 -528 -929 -1204 -1375 -1717 l-145 -168 -1795 -2
-1796 -3 -98 -27 c-436 -121 -767 -484 -837 -920 -18 -112 -8 -351 19 -451
124 -465 501 -799 966 -856 63 -8 641 -11 1897 -11 1203 0 1850 -4 1935 -11
812 -68 1573 -430 2148 -1020 555 -570 881 -1278 956 -2074 17 -183 6 -602
-20 -777 -108 -725 -424 -1370 -926 -1887 -280 -289 -561 -496 -915 -675 -347
-176 -685 -281 -1095 -342 -114 -17 -381 -19 -5202 -21 -2796 -2 -5083 -1
-5083 2 0 3 73 97 163 208 544 672 1071 1388 1410 1913 l92 143 4135 1 c4499
0 4215 -3 4393 55 375 122 655 423 759 816 20 73 23 108 22 269 -1 204 -11
259 -77 425 -120 300 -409 564 -716 655 -176 52 -106 50 -2060 50 -1807 0
-1928 2 -2161 35 -958 136 -1814 678 -2355 1490 -312 468 -494 977 -556 1555
-18 166 -15 535 5 705 51 418 159 781 340 1142 490 979 1423 1667 2496 1842
235 38 313 41 1235 41 504 0 906 4 909 9 3 5 -29 57 -71 117 -109 155 -375
555 -475 714 -587 932 -924 1685 -1025 2286 -14 85 -18 159 -17 334 1 239 15
381 59 610 192 981 808 1827 1691 2321 568 318 1249 469 1890 419z m-11251
-9095 c749 -79 1427 -387 1978 -897 557 -515 937 -1237 1048 -1993 64 -436 45
-750 -71 -1152 -303 -1055 -1304 -2641 -2815 -4458 -208 -251 -474 -559 -484
-562 -13 -4 -511 586 -837 992 -1353 1687 -2224 3125 -2483 4097 -75 281 -98
503 -81 771 30 487 134 883 345 1312 178 362 369 630 650 910 556 556 1263
894 2048 979 169 19 530 19 702 1z m5565 -10437 c5 -13 150 -695 322 -1515
172 -821 315 -1489 318 -1485 4 4 143 655 309 1447 167 792 310 1470 318 1508
l15 67 359 0 c300 0 359 -2 359 -14 0 -10 -814 -3443 -855 -3608 l-7 -28 -498
0 c-466 0 -499 1 -504 18 -16 56 -856 3603 -856 3616 0 14 37 16 355 16 l355
0 10 -22z m-6830 -858 c227 -65 386 -226 469 -475 67 -202 65 -165 68 -1282
l4 -1013 -356 0 -355 0 0 888 c0 498 -5 920 -10 962 -22 175 -81 282 -185 335
-53 27 -67 30 -154 30 -89 0 -102 -3 -163 -33 -111 -55 -182 -155 -230 -327
-23 -80 -23 -84 -26 -967 l-3 -888 -354 0 -355 0 0 1365 0 1365 355 0 355 0 0
-192 0 -193 41 85 c59 119 171 231 290 288 77 37 158 63 234 76 17 2 91 3 165
1 100 -3 154 -9 210 -25z m3810 6 c511 -83 725 -299 816 -827 15 -81 17 -218
21 -1021 l4 -928 -355 0 -356 0 0 152 0 153 -32 -40 c-171 -213 -447 -335
-756 -335 -491 0 -840 237 -941 637 -42 163 -44 405 -7 565 92 394 416 610
989 657 70 6 268 11 439 11 l311 0 -5 108 c-6 124 -19 161 -79 227 -82 89
-185 125 -384 132 -288 11 -566 -50 -870 -189 -71 -33 -136 -62 -143 -65 -10
-4 -12 56 -10 298 l3 303 57 23 c165 66 443 131 653 152 132 14 531 6 645 -13z
m12040 -5 c366 -74 635 -271 793 -579 121 -234 167 -475 167 -874 l0 -178
-925 0 -925 0 0 -63 c0 -207 116 -402 290 -490 139 -69 204 -81 460 -81 197 0
238 2 330 22 166 36 312 89 488 177 l162 81 0 -327 0 -327 -82 -30 c-203 -73
-391 -120 -593 -149 -142 -21 -565 -24 -680 -5 -736 120 -1105 590 -1105 1407
0 460 117 808 359 1066 197 211 405 318 711 365 122 19 426 11 550 -15z
m-4760 -933 c0 -524 4 -922 10 -963 23 -167 78 -268 171 -320 51 -28 60 -30
169 -30 109 0 118 2 168 30 134 73 215 229 242 460 6 54 10 410 10 903 l0 812
355 0 355 0 0 -1365 0 -1365 -355 0 -355 0 0 197 0 198 -39 -78 c-75 -150
-171 -245 -313 -312 -121 -57 -184 -70 -353 -70 -126 0 -163 4 -230 23 -238
69 -394 226 -479 482 -70 210 -69 203 -73 1303 l-4 987 360 0 361 0 0 -892z"/>
<path d="M23181 28369 c-484 -60 -878 -424 -975 -899 -50 -250 -20 -490 93
-725 143 -298 408 -513 748 -607 67 -19 105 -22 268 -22 176 0 197 2 290 27
122 33 295 117 390 188 204 153 358 382 421 626 51 193 43 445 -18 633 -129
395 -461 688 -867 766 -99 19 -258 25 -350 13z"/>
<path d="M11767 19275 c-382 -64 -718 -337 -861 -698 -61 -154 -70 -206 -70
-417 -1 -183 1 -201 27 -294 32 -115 96 -256 157 -346 104 -153 276 -302 442
-383 561 -274 1232 -47 1513 513 310 618 -1 1364 -659 1584 -161 54 -377 70
-549 41z"/>
<path d="M14423 8749 c-327 -42 -455 -177 -441 -466 6 -119 32 -186 102 -261
70 -75 145 -105 275 -110 182 -7 301 35 411 147 132 134 210 369 210 634 l0
67 -247 -1 c-137 -1 -276 -5 -310 -10z"/>
<path d="M26475 9720 c-257 -36 -424 -225 -468 -533 l-6 -37 562 2 562 3 -4
65 c-14 254 -148 430 -368 484 -77 19 -203 26 -278 16z"/>
</g>
</svg>
