<?xml version="1.0" encoding="UTF-8" standalone="no"?>
<svg
   xmlns:dc="http://purl.org/dc/elements/1.1/"
   xmlns:cc="http://creativecommons.org/ns#"
   xmlns:rdf="http://www.w3.org/1999/02/22-rdf-syntax-ns#"
   xmlns:svg="http://www.w3.org/2000/svg"
   xmlns="http://www.w3.org/2000/svg"
   xmlns:sodipodi="http://sodipodi.sourceforge.net/DTD/sodipodi-0.dtd"
   xmlns:inkscape="http://www.inkscape.org/namespaces/inkscape"
   aria-hidden="true"
   focusable="false"
   data-prefix="fas"
   data-icon="route"
   class="svg-inline--fa fa-route fa-w-16"
   role="img"
   viewBox="0 0 512 512"
   version="1.1"
   id="svg864"
   sodipodi:docname="logo-transparent.svg"
   inkscape:version="0.92.5 (2060ec1f9f, 2020-04-08)">
  <metadata
     id="metadata870">
    <rdf:RDF>
      <cc:Work
         rdf:about="">
        <dc:format>image/svg+xml</dc:format>
        <dc:type
           rdf:resource="http://purl.org/dc/dcmitype/StillImage" />
        <dc:title></dc:title>
      </cc:Work>
    </rdf:RDF>
  </metadata>
  <defs
     id="defs868" />
  <sodipodi:namedview
     pagecolor="#ffffff"
     bordercolor="#666666"
     borderopacity="1"
     objecttolerance="10"
     gridtolerance="10"
     guidetolerance="10"
     inkscape:pageopacity="0"
     inkscape:pageshadow="2"
     inkscape:window-width="1920"
     inkscape:window-height="1043"
     id="namedview866"
     showgrid="false"
     inkscape:zoom="0.4609375"
     inkscape:cx="11.932203"
     inkscape:cy="256"
     inkscape:window-x="0"
     inkscape:window-y="0"
     inkscape:window-maximized="1"
     inkscape:current-layer="svg864" />
  <path
     d="m 384.1356,307.25423 h -76.88137 c -14.0949,0 -25.62712,-11.5322 -25.62712,-25.62711 0,-14.09491 11.53222,-25.62712 25.62712,-25.62712 h 76.88137 c 0,0 76.88135,-85.69067 76.88135,-128.13559 0,-42.444925 -34.43645,-76.881355 -76.88135,-76.881355 -42.44493,0 -76.88137,34.43643 -76.88137,76.881355 0,20.42161 17.77882,50.77373 36.27839,76.88135 h -36.27839 c -42.36483,0 -76.88135,34.51653 -76.88135,76.88136 0,42.36483 34.51652,76.88136 76.88135,76.88136 h 76.88137 c 14.0949,0 25.62711,11.5322 25.62711,25.62712 0,14.0949 -11.53221,25.62711 -25.62711,25.62711 H 199.54026 c -12.81357,19.86103 -27.06866,38.20043 -37.8801,51.25424 H 384.1356 c 42.36482,0 76.88135,-34.51653 76.88135,-76.88135 0,-42.36484 -34.51653,-76.88137 -76.88135,-76.88137 z m 0,-205.01694 c 14.175,0 25.62711,11.45212 25.62711,25.62712 0,14.175 -11.45211,25.62712 -25.62711,25.62712 -14.17501,0 -25.62712,-11.45212 -25.62712,-25.62712 0,-14.175 11.45211,-25.62712 25.62712,-25.62712 z M 127.86441,256 c -42.444925,0 -76.881355,34.43644 -76.881355,76.88136 0,42.44492 76.881355,128.13559 76.881355,128.13559 0,0 76.88134,-85.69067 76.88134,-128.13559 C 204.74575,290.43644 170.30932,256 127.86441,256 Z m 0,102.50848 c -14.17501,0 -25.62712,-11.45212 -25.62712,-25.62712 0,-14.175 11.45212,-25.62713 25.62712,-25.62713 14.175,0 25.62711,11.45213 25.62711,25.62713 0,14.175 -11.45212,25.62712 -25.62711,25.62712 z"
     id="path862"
     style="fill:#ffffff;fill-opacity:1;stroke:none;stroke-width:0.80084747;stroke-opacity:1"
     inkscape:connector-curvature="0" />
</svg>
