<?xml version="1.0" encoding="UTF-8"?>
<svg class="svg-inline--fa fa-route fa-w-16" aria-hidden="true" data-icon="route" data-prefix="fas" focusable="false" role="img" version="1.1" viewBox="0 0 512 512" xmlns="http://www.w3.org/2000/svg" xmlns:cc="http://creativecommons.org/ns#" xmlns:dc="http://purl.org/dc/elements/1.1/" xmlns:rdf="http://www.w3.org/1999/02/22-rdf-syntax-ns#">
<path d="m384.14 307.25h-76.881c-14.095 0-25.627-11.532-25.627-25.627s11.532-25.627 25.627-25.627h76.881s76.881-85.691 76.881-128.14c0-42.445-34.436-76.881-76.881-76.881-42.445 0-76.881 34.436-76.881 76.881 0 20.422 17.779 50.774 36.278 76.881h-36.278c-42.365 0-76.881 34.517-76.881 76.881s34.517 76.881 76.881 76.881h76.881c14.095 0 25.627 11.532 25.627 25.627 0 14.095-11.532 25.627-25.627 25.627h-184.6c-12.814 19.861-27.069 38.2-37.88 51.254h222.48c42.365 0 76.881-34.517 76.881-76.881 0-42.365-34.517-76.881-76.881-76.881zm0-205.02c14.175 0 25.627 11.452 25.627 25.627s-11.452 25.627-25.627 25.627c-14.175 0-25.627-11.452-25.627-25.627s11.452-25.627 25.627-25.627zm-256.27 153.76c-42.445 0-76.881 34.436-76.881 76.881s76.881 128.14 76.881 128.14 76.881-85.691 76.881-128.14-34.436-76.881-76.881-76.881zm0 102.51c-14.175 0-25.627-11.452-25.627-25.627s11.452-25.627 25.627-25.627 25.627 11.452 25.627 25.627-11.452 25.627-25.627 25.627z" fill="#fff"/>
</svg>
